<svg xmlns="http://www.w3.org/2000/svg" viewBox="0 0 200 200">
  <g fill="#fcd34d" stroke="#b45309" stroke-width="4" stroke-linejoin="round">
    <ellipse cx="100" cy="50" rx="11" ry="37" transform="rotate(0 100 100)"/>
    <ellipse cx="100" cy="50" rx="11" ry="37" transform="rotate(20 100 100)"/>
    <ellipse cx="100" cy="50" rx="11" ry="37" transform="rotate(40 100 100)"/>
    <ellipse cx="100" cy="50" rx="11" ry="37" transform="rotate(60 100 100)"/>
    <ellipse cx="100" cy="50" rx="11" ry="37" transform="rotate(80 100 100)"/>
    <ellipse cx="100" cy="50" rx="11" ry="37" transform="rotate(100 100 100)"/>
    <ellipse cx="100" cy="50" rx="11" ry="37" transform="rotate(120 100 100)"/>
    <ellipse cx="100" cy="50" rx="11" ry="37" transform="rotate(140 100 100)"/>
    <ellipse cx="100" cy="50" rx="11" ry="37" transform="rotate(160 100 100)"/>
    <ellipse cx="100" cy="50" rx="11" ry="37" transform="rotate(180 100 100)"/>
    <ellipse cx="100" cy="50" rx="11" ry="37" transform="rotate(200 100 100)"/>
    <ellipse cx="100" cy="50" rx="11" ry="37" transform="rotate(220 100 100)"/>
    <ellipse cx="100" cy="50" rx="11" ry="37" transform="rotate(240 100 100)"/>
    <ellipse cx="100" cy="50" rx="11" ry="37" transform="rotate(260 100 100)"/>
    <ellipse cx="100" cy="50" rx="11" ry="37" transform="rotate(280 100 100)"/>
    <ellipse cx="100" cy="50" rx="11" ry="37" transform="rotate(300 100 100)"/>
    <ellipse cx="100" cy="50" rx="11" ry="37" transform="rotate(320 100 100)"/>
    <ellipse cx="100" cy="50" rx="11" ry="37" transform="rotate(340 100 100)"/>
  </g>
  <circle cx="100" cy="100" r="27" fill="#92400e"/>
  <circle cx="100" cy="100" r="14" fill="#fcd34d"/>
</svg>
